<svg width="278" height="324" viewBox="0 0 278 324" fill="none" xmlns="http://www.w3.org/2000/svg">
<path d="M86.2772 67.0423L20.9727 131.464L64.3496 175.435L129.654 111.014L86.2772 67.0423Z" fill="#5080A0"/>
<path d="M69.8752 187.763L66.3484 191.236C61.0651 196.433 50.512 194.268 42.7777 186.406L9.72498 152.8C1.9906 144.934 0.00253892 134.344 5.28588 129.147L8.81265 125.675C10.7326 123.787 14.5635 124.572 17.3731 127.427L68.2593 179.171C71.069 182.026 71.7906 185.871 69.8707 187.759L69.8752 187.763Z" fill="white"/>
<path d="M61.5283 193.787C55.9681 195.003 48.5832 192.311 42.7824 186.411L9.73429 152.809C3.93351 146.908 1.36446 139.478 2.67168 133.94L61.5283 193.787Z" fill="#5080A0"/>
<path d="M140.407 118.644L143.952 115.136C149.258 109.879 147.225 99.2175 139.404 91.3151L105.988 57.5589C98.1676 49.6566 87.5238 47.5142 82.2177 52.7658L78.6728 56.2744C76.7438 58.1808 77.4836 62.0525 80.325 64.9257L131.774 116.906C134.615 119.774 138.478 120.555 140.407 118.644Z" fill="white"/>
<path d="M146.589 110.32C147.887 104.732 145.278 97.2522 139.413 91.3289L105.997 57.5727C100.133 51.6494 92.6802 48.9578 87.0791 50.2014L146.589 110.32Z" fill="#5080A0"/>
<path d="M127.389 123.719L120.721 128.648C105.942 139.569 92.8108 152.555 81.7312 167.216L77.1105 173.33L23.2422 118.735L32.8648 112.535C46.3455 103.847 57.8971 92.4862 66.8162 79.1598L73.5247 69.1287L127.393 123.723L127.389 123.719Z" fill="#ABC5EB"/>
<path d="M126.836 126.324L126.795 126.365C125.678 127.468 123.881 127.454 122.782 126.338L70.8432 73.695C69.7402 72.5784 69.7538 70.781 70.8704 69.6825L70.9113 69.6417C72.0279 68.5387 73.8253 68.5523 74.9237 69.6689L126.863 122.312C127.966 123.428 127.952 125.226 126.836 126.324Z" fill="white"/>
<path d="M77.0154 175.477L76.9746 175.517C75.858 176.62 74.0606 176.607 72.9621 175.49L21.0229 122.847C19.9199 121.731 19.9335 119.933 21.0501 118.835L21.091 118.794C22.2076 117.691 24.005 117.705 25.1034 118.821L77.0427 171.464C78.1456 172.581 78.132 174.378 77.0154 175.477Z" fill="white"/>
<path d="M271.893 299.73L126.968 162.844L119.202 173.093L254.554 317.096C263.291 326.256 268.629 325.171 273.513 320.337C278.42 315.48 281.03 308.563 271.888 299.726L271.893 299.73Z" fill="white"/>
<path d="M133.223 157.08C132.074 155.918 129.337 156.703 126.709 158.805C124.127 149.445 118.576 140.163 109.157 137.898L106.802 139.973L95.2499 151.22L93.1348 153.499C95.3498 162.994 104.677 168.65 114.091 171.269C111.881 173.91 111.023 176.711 112.194 177.896L112.244 177.945C113.583 179.298 117.069 178.018 120.033 175.086L130.332 164.891C133.295 161.959 134.612 158.487 133.273 157.134L133.223 157.084V157.08Z" fill="white"/>
<path d="M84.4822 32.681L65.7953 20.9478C63.8617 19.7313 63.4078 17.1078 64.8239 15.3149L64.8784 15.2468C66.349 13.3859 69.1359 13.286 70.7337 15.038L85.6033 31.351C86.2887 32.1045 85.3536 33.2256 84.4912 32.6855L84.4822 32.681Z" fill="#ABC5EB"/>
<path d="M101.276 28.8773L114.158 14.0531C115.492 12.5189 117.861 12.4826 119.241 13.9714L119.296 14.0304C120.73 15.5782 120.435 18.0428 118.674 19.2048L102.288 30.0393C101.53 30.5386 100.672 29.5627 101.267 28.8773H101.276Z" fill="#ABC5EB"/>
<path d="M92.7799 25.4412L90.7964 4.07637C90.5922 1.87044 92.3533 -0.0313802 94.5728 0.000392473H94.6591C96.9649 0.0367041 98.6897 2.12916 98.2766 4.39864L94.4684 25.5139C94.2914 26.4897 92.8707 26.4307 92.7799 25.4412Z" fill="#ABC5EB"/>
<path d="M100.087 319.175H9.87988V312.462C9.87988 307.437 13.9513 303.366 18.976 303.366H90.991C96.0156 303.366 100.087 307.437 100.087 312.462V319.175Z" fill="#5080A0"/>
<path d="M109.452 312.38H2.10154C0.94089 312.38 0 313.321 0 314.482V321.898C0 323.059 0.94089 324 2.10154 324H109.452C110.613 324 111.554 323.059 111.554 321.898V314.482C111.554 313.321 110.613 312.38 109.452 312.38Z" fill="white"/>
<g style="mix-blend-mode:multiply" opacity="0.1">
<path d="M100.087 312.462H9.87988V311.223C9.87988 310.415 10.5335 309.761 11.3414 309.761L99.8828 311.817L100.083 312.462H100.087Z" fill="#272525"/>
</g>
</svg>
